<svg id="Layer_1" xmlns="http://www.w3.org/2000/svg" xmlns:xlink="http://www.w3.org/1999/xlink" viewBox="0 0 363 312" width="382" height="300"><style>.st0{fill:#f4f4f4}.st1{fill:#ecf1ff}.st2{fill:#c9cef3}.st3{fill:#414364}.st4{fill:#c3d0fc}.st7{fill:#31355b}.st10{fill:#98a6f9}.st11{fill:#b2bff9}.st13{fill:#171a2d}.st15{fill:#a3b0fa}.st18{fill:#ffc9be}.st31{fill:#ff2b68}.st41{fill:#ff5788}.st43{fill:#2a2c51}</style><g id="Layer_5"><path class="st0" d="M24 265.2c-1.1-3.6-30.7-82.9-16-138.4C19.6 82.6 60.8 16.8 151 41c67 18 75.6 101.2 152.6 105.8 89.7 5.3 42.5 126.6 42.5 126.6l-66.6 2.2L24 271.2v-6z"/><path class="st1" d="M9.7 265.9h342.8c3.4 0 6.2 2.8 6.2 6.2v.1c0 3.4-2.8 6.2-6.2 6.2H9.7c-3.4 0-6.2-2.8-6.2-6.2v-.2c.1-3.4 2.8-6.1 6.2-6.1z"/><path class="st0" d="M243.2 89.2c-2.2-.8-4.6-1.2-6.9-1.2-8.3.2-26.4-1-27.2-14.9-1-18 18.5-26.9 28.3-8.9s8.5 11.1 14.5 15c5.4 3.5-.2 13.2-8.7 10z"/><path class="st2" d="M347.9 204.6s7.7-2.1 7.2 8.3c-.6 10.4-4.2 15.7 2.2 12.7s.9 23.2-14.2 29c-.4.2-.1 1.6-.4 1.4-12-7.6-10.6-33.1-2.5-31.9 7.5 1-5-16.3 7.7-19.5z"/><path class="st3" d="M343.3 268.1c-.6-2.3-.7-4.8-.6-7.2 0-2.6.3-5.3.8-7.9.5-2.3 1.4-4.4 2.1-6.6 2.3-6.7 2.9-14 3.3-21 .1-1.8.2-3.6.2-5.5 0-.1-.1-.2-.2-.2s-.2.1-.2.2c0 4.9-.3 9.8-.9 14.7-.5 3.8-1.1 7.7-2.3 11.3-.7 2.1-1.6 4.1-2.1 6.2-.6 2.5-.9 5.1-1 7.6-.1 2.8-.1 5.7.6 8.5 0 .1.1.1.2.1s.2-.1.1-.2z"/><path class="st4" d="M174.3 221.4l-7.7 43.6-1.3 3.7h63.4l-6.2-38.2z"/><path d="M105.2 89.7H286c5.8 0 10.5 4.7 10.5 10.5v127.5c0 5.8-4.7 10.5-10.5 10.5H105.2c-5.8 0-10.5-4.7-10.5-10.5V100.2c.1-5.8 4.8-10.5 10.5-10.5z" fill="#e3e8f9"/><defs><path id="SVGID_1_" d="M105.2 89.7H286c5.8 0 10.5 4.7 10.5 10.5v127.5c0 5.8-4.7 10.5-10.5 10.5H105.2c-5.8 0-10.5-4.7-10.5-10.5V100.2c.1-5.8 4.8-10.5 10.5-10.5z"/></defs><clipPath id="SVGID_2_"><use xlink:href="#SVGID_1_" overflow="visible"/></clipPath><g clip-path="url(#SVGID_2_)"><path class="st7" d="M87.2 74.6h225.2c.9 0 1.7.8 1.7 1.7v132.9c0 .9-.8 1.7-1.7 1.7H87.2c-.9 0-1.7-.8-1.7-1.7V76.3c0-.9.8-1.7 1.7-1.7z"/></g><path class="st1" d="M107.4 97.6h175.8c1.8 0 3.3 1.5 3.3 3.3v98.6c0 1.8-1.5 3.3-3.3 3.3H107.4c-1.8 0-3.3-1.5-3.3-3.3v-98.6c0-1.9 1.5-3.3 3.3-3.3z"/><circle cx="197.6" cy="223.3" r="3.6" fill="#6265aa"/><path d="M163 262.2h68c2.9 0 5.2 2.3 5.2 5.2 0 .7-.6 1.3-1.3 1.3H159c-.7 0-1.3-.6-1.3-1.3.1-2.9 2.4-5.2 5.3-5.2z" fill="#d1ddff"/><path class="st10" d="M119.5 136.4h63c.5 0 .8.4.8.8v2c0 .5-.4.8-.8.8h-63c-.5 0-.8-.4-.8-.8v-2c-.1-.4.3-.8.8-.8zm0 10h63c.5 0 .8.4.8.8v2c0 .5-.4.8-.8.8h-63c-.5 0-.8-.4-.8-.8v-2c-.1-.5.3-.8.8-.8zm0 9.9h63c.5 0 .8.4.8.8v2c0 .5-.4.8-.8.8h-63c-.5 0-.8-.4-.8-.8v-2c-.1-.4.3-.8.8-.8zm0 9.9h63c.5 0 .8.4.8.8v2c0 .5-.4.8-.8.8h-63c-.5 0-.8-.4-.8-.8v-2c-.1-.4.3-.8.8-.8zm0 9.9h63c.5 0 .8.4.8.8v2c0 .5-.4.8-.8.8h-63c-.5 0-.8-.4-.8-.8v-2c-.1-.4.3-.8.8-.8zm0 9.9h63c.5 0 .8.4.8.8v2c0 .5-.4.8-.8.8h-63c-.5 0-.8-.4-.8-.8v-2c-.1-.4.3-.8.8-.8z"/><path class="st4" d="M189.2 132h81.5c.9 0 1.7.8 1.7 1.7v59.1c0 .9-.8 1.7-1.7 1.7h-81.5c-.9 0-1.7-.8-1.7-1.7v-59.1c0-1 .8-1.7 1.7-1.7z"/><path class="st11" d="M189.2 104h81.5c.9 0 1.7.8 1.7 1.7v17.1c0 .9-.8 1.7-1.7 1.7h-81.5c-.9 0-1.7-.8-1.7-1.7v-17.1c0-.9.8-1.7 1.7-1.7z"/><path class="st7" d="M19.2 171.2h67.1c3.5 0 6.4 2.9 6.4 6.4v88.3c0 3.5-2.9 6.4-6.4 6.4H19.2c-3.5 0-6.4-2.9-6.4-6.4v-88.3c0-3.5 2.8-6.4 6.4-6.4z"/><path d="M20.1 180h65.1c.3 0 .6.3.6.6V263c0 .3-.3.6-.6.6H20.1c-.3 0-.6-.3-.6-.6v-82.5c.1-.3.3-.5.6-.5z" fill="#ecf1ff" stroke="#c5ccd6" stroke-width="2.93" stroke-miterlimit="10"/><circle class="st13" cx="52.8" cy="268.6" r="2.4"/><circle class="st13" cx="53" cy="175.8" r=".6"/><path class="st11" d="M23.9 187.3h58c.9 0 1.7.8 1.7 1.7v13.8c0 .9-.8 1.7-1.7 1.7h-58c-.9 0-1.7-.8-1.7-1.7V189c0-.9.8-1.7 1.7-1.7z"/><path class="st4" d="M53.1 207.6h27.8c.9 0 1.7.8 1.7 1.7v44.4c0 .9-.8 1.7-1.7 1.7H53.1c-.9 0-1.7-.8-1.7-1.7v-44.4c0-.9.8-1.7 1.7-1.7z"/><path class="st10" d="M23.5 212.6h24c.7 0 1.3.6 1.3 1.3 0 .7-.6 1.3-1.3 1.3h-24c-.7 0-1.3-.6-1.3-1.3 0-.7.6-1.3 1.3-1.3zm0 8.6h24c.7 0 1.3.6 1.3 1.3 0 .7-.6 1.3-1.3 1.3h-24c-.7 0-1.3-.6-1.3-1.3 0-.7.6-1.3 1.3-1.3zm0 8.7h24c.7 0 1.3.6 1.3 1.3 0 .7-.6 1.3-1.3 1.3h-24c-.7 0-1.3-.6-1.3-1.3 0-.7.6-1.3 1.3-1.3zm0 8.9h24c.7 0 1.3.6 1.3 1.3 0 .7-.6 1.3-1.3 1.3h-24c-.7 0-1.3-.6-1.3-1.3 0-.7.6-1.3 1.3-1.3zm0 9h24c.7 0 1.3.6 1.3 1.3 0 .7-.6 1.3-1.3 1.3h-24c-.7 0-1.3-.6-1.3-1.3 0-.7.6-1.3 1.3-1.3zm278.6-40.2c.3 0 .5.2.5.5v1.8c0 .3-.2.5-.5.5s-.5-.2-.5-.5v-1.8c0-.3.2-.5.5-.5zm.2 5.3c.4 0 .7.3.7.7v4.1c0 .4-.3.7-.7.7-.4 0-.7-.3-.7-.7v-4.1c0-.4.3-.7.7-.7zm0 7.1c.4 0 .7.3.7.7v4.3c0 .4-.3.7-.7.7-.4 0-.7-.3-.7-.7v-4.3c0-.4.3-.7.7-.7zm37.1-5c.3 0 .6.3.6.6v8c0 .3-.3.6-.6.6s-.6-.3-.6-.6v-8c0-.3.3-.6.6-.6z"/><path class="st7" d="M308.1 197.3H333c3.5 0 6.3 2.8 6.3 6.3v63.2c0 3.5-2.8 6.3-6.3 6.3h-24.9c-3.5 0-6.3-2.8-6.3-6.3v-63.2c0-3.4 2.8-6.3 6.3-6.3z"/><path class="st1" d="M309.4 198.9h22.4c3.1 0 5.7 2.5 5.7 5.7V266c0 3.1-2.5 5.7-5.7 5.7h-22.4c-3.1 0-5.7-2.5-5.7-5.7v-61.4c0-3.1 2.5-5.7 5.7-5.7z"/><path class="st7" d="M312.5 197.6h16.4c.9 0 1.7.8 1.7 1.7 0 1.3-1.1 2.4-2.4 2.4h-15c-1.3 0-2.4-1.1-2.4-2.4 0-.9.8-1.7 1.7-1.7z"/><path class="st11" d="M307.2 205.2H334c.9 0 1.7.8 1.7 1.7v11.5c0 .9-.8 1.7-1.7 1.7h-26.8c-.9 0-1.7-.8-1.7-1.7v-11.5c0-1 .7-1.7 1.7-1.7z"/><path class="st4" d="M307.2 222.4H334c.9 0 1.7.8 1.7 1.7v20.5c0 .9-.8 1.7-1.7 1.7h-26.8c-.9 0-1.7-.8-1.7-1.7v-20.5c0-1 .8-1.7 1.7-1.7z"/><path class="st10" d="M306.1 249.2h28.8c.5 0 .8.4.8.8 0 .5-.4.8-.8.8h-28.8c-.5 0-.8-.4-.8-.8-.1-.4.3-.8.8-.8zm0 3.9h28.8c.5 0 .8.4.8.8 0 .5-.4.8-.8.8h-28.8c-.5 0-.8-.4-.8-.8-.1-.4.3-.8.8-.8zm0 3.8h28.8c.5 0 .8.4.8.8 0 .5-.4.8-.8.8h-28.8c-.5 0-.8-.4-.8-.8-.1-.4.3-.8.8-.8zm0 3.8h28.8c.5 0 .8.4.8.8 0 .5-.4.8-.8.8h-28.8c-.5 0-.8-.4-.8-.8-.1-.4.3-.8.8-.8z"/><path class="st2" d="M65.1 135.6s-20.8-7.4-25-26.7c-2.5-11.5 5.8-12 7.9-9.8.9 1 2.4 1.1 3.5.4 1.4-1 1.4-2.3-1.1-9.7-5.3-16.2 12.2-40.3 21-26.9 12.2 18.5-8.5 42.3-5.4 48.2 3.1 5.9 6.6-4.1 10.4-2.2 3.9 1.9 1.1 21.2-11.3 26.7z"/><path class="st3" d="M68.6 170.9c.4-3.3.5-6.6.4-9.9-.1-7.4-.9-14.9-2.7-22.1-1-4.1-2.6-7.9-3.9-11.9-1.2-3.7-2-7.4-2.5-11.2-.7-6.2-.6-12.5.5-18.6.8-4.9 2.3-9.6 3.3-14.5.1-.4-.5-.5-.6-.2-.9 4.2-2.1 8.4-3 12.6-1.1 5.8-1.6 11.8-1.1 17.7.3 3.6.8 7.1 1.7 10.5 1 4 2.6 7.8 3.8 11.8 2.3 7.5 3.5 15.4 3.7 23.3.1 4.1.1 8.3-.4 12.4.2.4.8.4.8.1z"/><path class="st10" d="M306.1 264.5h28.8c.5 0 .8.4.8.8 0 .5-.4.8-.8.8h-28.8c-.5 0-.8-.4-.8-.8-.1-.5.3-.8.8-.8z"/><path d="M221 222.2h38.3v3.6H221zm-2.8 18.2h43.9v3.6h-43.9zm-2.3 18h50v3.6h-50z" fill="#94a3e0"/><path class="st15" d="M224.1 204.3c.6.1 1 .6.9 1.2l-10.6 70.1c-.1.6-.6 1-1.2.9-.6-.1-1-.6-.9-1.2l10.6-70.1c.1-.5.7-.9 1.2-.9zm43.9 72.2c-.6.1-1.1-.3-1.2-.9l-10.6-70.1c-.1-.6.3-1.1.9-1.2.6-.1 1.1.3 1.2.9l10.6 70.1c.1.6-.3 1.1-.9 1.2z"/><path class="st10" d="M222.8 203.9h35.5c.4 0 .7.3.7.7v2.9c0 .4-.3.7-.7.7h-35.5c-.4 0-.7-.3-.7-.7v-2.9c0-.3.3-.7.7-.7z"/><path class="st4" d="M223 198.5h35c2.7 0 4.9 2.2 4.9 4.9v.4c0 .9-.8 1.7-1.7 1.7h-41.5c-.9 0-1.7-.8-1.7-1.7v-.4c.1-2.7 2.3-4.9 5-4.9z"/><path class="st15" d="M221 223.2h38.3v3.6H221zm-2.8 18.2h43.9v3.6h-43.9zm-2.3 18h50v3.6h-50z"/><path d="M83 161.1s-18-5.7-15.8-18.1c0 0 .8-3.9 5.8 0s-2.5-12.5-2.4-17c.1-4.5 2.4-15.9 11.4-13.7s4 16.5 2.5 20 .4 4.3 2.7 2.6c2.3-1.7 5.9-2.9 5.8 4.1-.1 4.1-3.1 17-10 22.1z" fill="#8496f8"/><path d="M82.8 171.3s1.1-2 0-12c-.4-3.9-1.2-7.8-2.3-11.6-4.8-17 0-25.5 0-25.5" fill="none" stroke="#414364" stroke-width="2.2" stroke-miterlimit="10"/><path class="st18" d="M246.4 118.7s12.6.3 23.6-4.1c0 0 0-2.4.4-2.2s.3 1.1.6 1 .7-1.7 1.1-1.7c.4 0 1.2.7-.7 3.4-2.1 2.9-16.9 9.8-25 9.9-8.1.1-3.6-4.9-3.6-4.9l3.6-1.4z"/><defs><path id="SVGID_3_" d="M246.4 118.7s12.6.3 23.6-4.1c0 0 0-2.4.4-2.2s.3 1.1.6 1 .7-1.7 1.1-1.7c.4 0 1.2.7-.7 3.4-2.1 2.9-16.9 9.8-25 9.9-8.1.1-3.6-4.9-3.6-4.9l3.6-1.4z"/></defs><clipPath id="SVGID_4_"><use xlink:href="#SVGID_3_" overflow="visible"/></clipPath><g clip-path="url(#SVGID_4_)"><linearGradient id="SVGID_5_" gradientUnits="userSpaceOnUse" x1="4707.106" y1="-1162.874" x2="4884.218" y2="-1162.874" gradientTransform="matrix(.191 0 0 -.191 -654.481 -100.208)"><stop offset="0" stop-color="#2a0500"/><stop offset=".07" stop-color="#2a0500" stop-opacity=".78"/><stop offset=".23" stop-color="#2a0500" stop-opacity=".38"/><stop offset=".42" stop-color="#2a0500" stop-opacity=".15"/><stop offset=".65" stop-color="#2a0500" stop-opacity=".07"/></linearGradient><path d="M246.8 122s8.9 1.7 23.9-5.7c15-7.4 3.5 5 3.5 5l-18.5 8.4-11.2.1 2.3-7.8z" opacity=".22" fill="url(#SVGID_5_)"/></g><path d="M230.6 119.9l.3-7.7s-1.9 1-3.5 0-.9-4.9 1.3-7.2c2.2-2.4 5.5 0 5.5 0l-1.6 7.2-.2 7.7h-1.8z" fill="#ffc5b9"/><defs><path id="SVGID_6_" d="M230.6 119.9l.3-7.7s-1.9 1-3.5 0-.9-4.9 1.3-7.2c2.2-2.4 5.5 0 5.5 0l-1.6 7.2-.2 7.7h-1.8z"/></defs><clipPath id="SVGID_7_"><use xlink:href="#SVGID_6_" overflow="visible"/></clipPath><g clip-path="url(#SVGID_7_)"><linearGradient id="SVGID_8_" gradientUnits="userSpaceOnUse" x1="4629.266" y1="-1124.789" x2="4639.856" y2="-1124.789" gradientTransform="matrix(.191 0 0 -.191 -654.481 -100.208)"><stop offset="0" stop-color="#2a0500"/><stop offset=".49" stop-color="#2a0500" stop-opacity=".39"/><stop offset=".85" stop-color="#2a0500" stop-opacity=".07"/></linearGradient><path d="M230.3 116.1l.5 1.6h.9v-6.1s0 .3-1.3.9c-1.7.9 0 2.5 0 2.5l-.1 1.1z" opacity=".57" fill="url(#SVGID_8_)"/></g><path class="st18" d="M224.9 186.5l.8 11.1s.3 1.4-.4 1.7c-.7.3-1.3.6-1.5 1.2-.1.2 0 .4.2.5h3.2c.3 0 .6-.3.6-.6s0-.5-.1-.8c-.1-.6-.3-.8-.1-1.8s2.1-9.4 1.7-13.3c-.4-3.9-4.2 1.6-4.4 2z"/><defs><path id="SVGID_9_" d="M224.9 186.5l.8 11.1s.3 1.4-.4 1.7c-.7.3-1.3.6-1.5 1.2-.1.2 0 .4.2.5h3.2c.3 0 .6-.3.6-.6s0-.5-.1-.8c-.1-.6-.3-.8-.1-1.8s2.1-9.4 1.7-13.3c-.4-3.9-4.2 1.6-4.4 2z"/></defs><clipPath id="SVGID_10_"><use xlink:href="#SVGID_9_" overflow="visible"/></clipPath><g clip-path="url(#SVGID_10_)"><linearGradient id="SVGID_11_" gradientUnits="userSpaceOnUse" x1="4595.146" y1="-1527.6" x2="4667.586" y2="-1527.6" gradientTransform="matrix(.191 0 0 -.191 -654.481 -100.208)"><stop offset=".35" stop-color="#2a0500" stop-opacity=".07"/><stop offset=".58" stop-color="#2a0500" stop-opacity=".15"/><stop offset=".77" stop-color="#2a0500" stop-opacity=".38"/><stop offset=".93" stop-color="#2a0500" stop-opacity=".78"/><stop offset="1" stop-color="#2a0500"/></linearGradient><path d="M223.2 181.6s3.8 2.9 3.9 7.4c.1 4.5 0 11 0 11l3.2 1.5 6.7-15.2-13.8-4.7z" opacity=".57" fill="url(#SVGID_11_)"/></g><path class="st18" d="M245.4 184.9s6.6 10.8 6.6 12c0 .6-1.1 1.9-1.1 2.5 0 .2.2.5.4.4l2.5-1.3c.4-.1.7-.5.6-.9v-.1c-.2-.4-.5-.9-.5-1.1-.1-.6-2.8-12-3.9-13.6-1.2-1.5-4.6 2.1-4.6 2.1z"/><defs><path id="SVGID_12_" d="M245.4 184.9s6.6 10.8 6.6 12c0 .6-1.1 1.9-1.1 2.5 0 .2.2.5.4.4l2.5-1.3c.4-.1.7-.5.6-.9v-.1c-.2-.4-.5-.9-.5-1.1-.1-.6-2.8-12-3.9-13.6-1.2-1.5-4.6 2.1-4.6 2.1z"/></defs><clipPath id="SVGID_13_"><use xlink:href="#SVGID_12_" overflow="visible"/></clipPath><g clip-path="url(#SVGID_13_)"><linearGradient id="SVGID_14_" gradientUnits="userSpaceOnUse" x1="4699.786" y1="-1528.1" x2="4781.066" y2="-1528.1" gradientTransform="matrix(.191 0 0 -.191 -654.481 -100.208)"><stop offset=".35" stop-color="#2a0500" stop-opacity=".07"/><stop offset=".58" stop-color="#2a0500" stop-opacity=".15"/><stop offset=".77" stop-color="#2a0500" stop-opacity=".38"/><stop offset=".93" stop-color="#2a0500" stop-opacity=".78"/><stop offset="1" stop-color="#2a0500"/></linearGradient><path d="M243.2 187.6s4.9-2 6.8 0c2 2 4.5 15.2 4.5 15.2l4.2-6.8-2.8-11.5s-5.5-4.8-5.5-3.9c.1.8-7.2 7-7.2 7z" opacity=".57" fill="url(#SVGID_14_)"/></g><path class="st18" d="M188.9 111.5s9.2 7.3 27 6.6c17.8-.7 12.2 2.4 12.2 2.4l-6.6 5-6.6-.7s-16.5-2.7-26.8-12.2c0 0-3.1-1.8-1.5-3.8 0 0 .7-.4 1.3 1.3 0 0 .3.4.7 0 .4-.4.6.6.3 1.4z"/><defs><path id="SVGID_15_" d="M188.9 111.5s9.2 7.3 27 6.6c17.8-.7 12.2 2.4 12.2 2.4l-6.6 5-6.6-.7s-16.5-2.7-26.8-12.2c0 0-3.1-1.8-1.5-3.8 0 0 .7-.4 1.3 1.3 0 0 .3.4.7 0 .4-.4.6.6.3 1.4z"/></defs><clipPath id="SVGID_16_"><use xlink:href="#SVGID_15_" overflow="visible"/></clipPath><g clip-path="url(#SVGID_16_)"><linearGradient id="SVGID_17_" gradientUnits="userSpaceOnUse" x1="4486.028" y1="-1194.545" x2="4597.077" y2="-1130.426" gradientTransform="matrix(.191 0 0 -.191 -654.481 -100.208)"><stop offset=".35" stop-color="#2a0500" stop-opacity=".07"/><stop offset=".58" stop-color="#2a0500" stop-opacity=".15"/><stop offset=".77" stop-color="#2a0500" stop-opacity=".38"/><stop offset=".93" stop-color="#2a0500" stop-opacity=".78"/><stop offset="1" stop-color="#2a0500"/></linearGradient><path d="M224.3 117s-6 .2-6.6 2.2c-1.5 5.6-16.5 1.4-20.1 0-3.6-1.4 21.8 10.6 21.8 10.6l4.9-12v-.8z" opacity=".57" fill="url(#SVGID_17_)"/></g><path d="M227.9 117.2s-.3-1.2 1-1.7c1.3-.6 2.9-.5 4.3.1 1 .4.7 2 .7 2l-6-.4z" fill="#d32266"/><path class="st31" d="M215.1 118.1s-2.1 3.6 0 7.1c0 0 2.6.4 3.5.6 1 .1 4.1.6 4.1.6v5l1.5 2.9 7.1.4 6.2-3.8s1.3-2 1.5-2.8c.1-.4.4-.5.4-.6 2-.6 7.8-2.4 7.8-2.4.8-2.2.5-4.6-.8-6.6l-9.6-.8s-11.6-1.7-12.9 0c0 .1-5.2.4-8.8.4z"/><defs><path id="SVGID_18_" d="M215.1 118.1s-2.1 3.6 0 7.1c0 0 2.6.4 3.5.6 1 .1 4.1.6 4.1.6v5l1.5 2.9 7.1.4 6.2-3.8s1.3-2 1.5-2.8c.1-.4.4-.5.4-.6 2-.6 7.8-2.4 7.8-2.4.8-2.2.5-4.6-.8-6.6l-9.6-.8s-11.6-1.7-12.9 0c0 .1-5.2.4-8.8.4z"/></defs><clipPath id="SVGID_19_"><use xlink:href="#SVGID_18_" overflow="visible"/></clipPath><g clip-path="url(#SVGID_19_)"><linearGradient id="SVGID_20_" gradientUnits="userSpaceOnUse" x1="4611.209" y1="-1175.989" x2="4670.146" y2="-1175.989" gradientTransform="matrix(.191 0 0 -.191 -654.481 -100.208)"><stop offset="0" stop-color="#00052a"/><stop offset="0" stop-color="#0e0829"/><stop offset=".01" stop-color="#240c28"/><stop offset=".01" stop-color="#350f26"/><stop offset=".01" stop-color="#401126"/><stop offset=".02" stop-color="#471325"/><stop offset=".04" stop-color="#491325"/><stop offset=".08" stop-color="#411126" stop-opacity=".9"/><stop offset=".26" stop-color="#250c27" stop-opacity=".54"/><stop offset=".43" stop-color="#100829" stop-opacity=".28"/><stop offset=".6" stop-color="#04062a" stop-opacity=".12"/><stop offset=".77" stop-color="#00052a" stop-opacity=".07"/></linearGradient><path d="M226.4 115.2s.8 1.3 1.3 3.6c.8 3.9-.8 9.5 4.2 9.5 2.9 0 3.1-4.8 3.1-4.8l2.6 2.9-.3 3.9-4.5 3.2-4.6-.6s-2-4.9-1.8-5.4v-12.3z" opacity=".7" fill="url(#SVGID_20_)"/></g><linearGradient id="SVGID_21_" gradientUnits="userSpaceOnUse" x1="4591.486" y1="-1206.734" x2="4604.656" y2="-1206.734" gradientTransform="matrix(.191 0 0 -.191 -654.481 -100.208)"><stop offset="0" stop-color="#00052a"/><stop offset="0" stop-color="#0e0829"/><stop offset=".01" stop-color="#240c28"/><stop offset=".01" stop-color="#350f26"/><stop offset=".01" stop-color="#401126"/><stop offset=".02" stop-color="#471325"/><stop offset=".04" stop-color="#491325"/><stop offset=".08" stop-color="#411126" stop-opacity=".9"/><stop offset=".26" stop-color="#250c27" stop-opacity=".54"/><stop offset=".43" stop-color="#100829" stop-opacity=".28"/><stop offset=".6" stop-color="#04062a" stop-opacity=".12"/><stop offset=".77" stop-color="#00052a" stop-opacity=".07"/></linearGradient><path opacity=".7" fill="url(#SVGID_21_)" d="M222.6 126.4l-.1 5.1 1.3 2.7 1.2-7z"/><path d="M224.3 117.5c.4-.1 1.5-.6 2.6-.5 0 0 .1 0 .1.1.1.4.7 2.7.7 7.1 0 6.1 7.3 6 7.5.6.3-5.3-.3-6.8-.6-7.1v-.1l1.8.3c.1 0 .3.1.3.3.2 1.6 1 10.7.7 13.9-.3 3.6.9 7.3 1.3 8.2.3.7 3.5 4.2 3.6 11 0 0 2.8 19 3.5 19.7 2.4 2.7 4.1 11.9 4.1 11.9l-4.8 1.3c.3.7-4.5-6.8-6-10.3-1.5-3.4-1.7-5.2-2.8-8.2-1.7-4.6-3.2-10.9-3.2-10.9-.3.2-.5.4-.7.7 0 0-2.1 13.4-2.8 16.1 0 0 2 4.8.3 11.5l-.4 3.5h-4.6l-1.5-8.1c-.3-1.6-.5-3.3-.6-4.9-.1-2.5-2.5-16.6-1-32.1l.1-10.9s-2.4-1.5-1.8-4.3l2.5.4s.3 5.1 1.4 5c1.9-.1 2.1-9.3.2-13.7 0-.4 0-.5.1-.5z" fill="#7879ad"/><defs><path id="SVGID_22_" d="M224.3 117.5c.4-.1 1.5-.6 2.6-.5 0 0 .1 0 .1.1.1.4.7 2.7.7 7.1 0 6.1 7.3 6 7.5.6.3-5.3-.3-6.8-.6-7.1v-.1l1.8.3c.1 0 .3.1.3.3.2 1.6 1 10.7.7 13.9-.3 3.6.9 7.3 1.3 8.2.3.7 3.5 4.2 3.6 11 0 0 2.8 19 3.5 19.7 2.4 2.7 4.1 11.9 4.1 11.9l-4.8 1.3c.3.7-4.5-6.8-6-10.3-1.5-3.4-1.7-5.2-2.8-8.2-1.7-4.6-3.2-10.9-3.2-10.9-.3.2-.5.4-.7.7 0 0-2.1 13.4-2.8 16.1 0 0 2 4.8.3 11.5l-.4 3.5h-4.6l-1.5-8.1c-.3-1.6-.5-3.3-.6-4.9-.1-2.5-2.5-16.6-1-32.1l.1-10.9s-2.4-1.5-1.8-4.3l2.5.4s.3 5.1 1.4 5c1.9-.1 2.1-9.3.2-13.7 0-.4 0-.5.1-.5z"/></defs><clipPath id="SVGID_23_"><use xlink:href="#SVGID_22_" overflow="visible"/></clipPath><g clip-path="url(#SVGID_23_)"><linearGradient id="SVGID_24_" gradientUnits="userSpaceOnUse" x1="4633.571" y1="-1350.396" x2="4705.134" y2="-1391.722" gradientTransform="matrix(.191 0 0 -.191 -654.481 -100.208)"><stop offset="0" stop-color="#00052a"/><stop offset=".01" stop-color="#00052a" stop-opacity=".95"/><stop offset=".09" stop-color="#00052a" stop-opacity=".55"/><stop offset=".2" stop-color="#00052a" stop-opacity=".27"/><stop offset=".35" stop-color="#00052a" stop-opacity=".11"/><stop offset=".77" stop-color="#00052a" stop-opacity=".07"/></linearGradient><path d="M236.6 147.2s.4 5-3.8 7.7l.6 5.5 4.6 15.7 1.3-2s4.2-3.9-1.3-21.1c-.6-1.9-1.4-5.8-1.4-5.8z" fill="url(#SVGID_24_)"/><linearGradient id="SVGID_25_" gradientUnits="userSpaceOnUse" x1="4519.764" y1="-1417.372" x2="4774.146" y2="-1270.507" gradientTransform="matrix(.191 0 0 -.191 -654.481 -100.208)"><stop offset="0" stop-color="#00052a"/><stop offset=".46" stop-color="#00052a" stop-opacity=".35"/><stop offset=".75" stop-color="#00052a" stop-opacity=".07"/></linearGradient><path d="M220 150.4s-3.9 31.2-3.6 32.6c.3 1.4 5.7 10.5 5.7 10.5l11-1.1 1.8-16.1-.1-11.7 5.4 21.9 8.4 7 9.9-5.9s-1-20.1-1.7-21.4-18.7-57-18.7-57l-18.9 9.4-6.7 22.5 7.5 9.3z" fill="url(#SVGID_25_)"/><path d="M219.4 135.3s2.1.5 3.8.2c.6-.1 1.1.3 1.1.9.4 2.6.9 8.8-3.4 8.4-5.4-.6-1.5-9.5-1.5-9.5z" fill="#38416d"/><path d="M221.9 137.6l2.2-1.1c.1-.1.2-.2.2-.3-.1-.5-.6-.9-1.1-.9h-1.6c-.2 0-.3.1-.3.3l.2 1.7c0 .2.2.3.3.3 0 .1.1.1.1 0z" fill="#2e385e"/></g><path class="st41" d="M225.3 199.2s.1.1.3 1.3h.6s1.1-1.3 1.7-1c0 0 .2.7.1 1.2 0 .1-.2.2-.3.2h-3.4s-.8 0-.1-.8c.5-.9 1.1-.9 1.1-.9zm26.3-1.3s.2.1.9 1l.5-.3s.5-1.7 1.1-1.7c.2.3.4.7.5 1 0 .1 0 .3-.1.3l-3 1.7s-.8.3-.6-.7.7-1.3.7-1.3z"/><path class="st31" d="M224.7 183.1l4.7-.3c.5 0 1 .4 1.1.9l.1 1.5c0 .5-.4 1-.9 1.1l-4.7.3c-.5 0-1-.4-1.1-.9l-.1-1.5c-.1-.6.3-1.1.9-1.1zm19.8-.5l4.3-2c.5-.2 1.1 0 1.3.5l.6 1.4c.2.5 0 1.1-.5 1.3l-4.3 2c-.5.2-1.1 0-1.3-.5l-.6-1.4c-.2-.5 0-1.1.5-1.3z"/><path d="M231.7 138.8l4.1-.6c.1 0 .2 0 .3.1l.7.5c.2.1.2.3.1.5l-.4.7c-.1.1-.2.2-.4.2l-4.2.6c-.1 0-.3 0-.4-.1l-.6-.5c-.1-.1-.2-.3-.1-.5l.4-.7c.2 0 .3-.1.5-.2z" fill="#495189"/><circle class="st43" cx="232.1" cy="139.9" r=".5"/><circle class="st43" cx="235.7" cy="139.3" r=".5"/><path d="M232.7 112.2s2.2-.5 3-6.3l1.3-.6s2.8-.5 4.1 2.5 1.1 6.8-2 7.6c-3.1.8-3.5 1.3-3.9 3.5-.5 2.2-2.5 2.4-2.7 2.8-.2.5-1.4 1.9.9 4.4 2.4 2.5 1.9 5.3 2 5.7s1.7 5.5 6.1 3.3c4.4-2.2 3-6.9 2.8-8.3-.2-1.4 1.5-3.2 2.5-3.6 1.7-.6 6.6-3.8 3.9-9-2.7-5.2-3.6-5.5-3.6-7.9s-6-5.8-10.7-2.4l-1.4.8s-2.2-2.7-5.7-1.7-2.2 3.4-2 4l1.1-1.6s.4.2.4 1.2c0 .9.8 1.7 1.6 1.4.3-.2.7-.1.9.3 0 .1.1.1.1.2 0 0 .2.9-.6 1.1 0-.1.8 3.4 1.9 2.6z" fill="#5151e8"/><defs><path id="SVGID_26_" d="M232.7 112.2s2.2-.5 3-6.3l1.3-.6s2.8-.5 4.1 2.5 1.1 6.8-2 7.6c-3.1.8-3.5 1.3-3.9 3.5-.5 2.2-2.5 2.4-2.7 2.8-.2.5-1.4 1.9.9 4.4 2.4 2.5 1.9 5.3 2 5.7s1.7 5.5 6.1 3.3c4.4-2.2 3-6.9 2.8-8.3-.2-1.4 1.5-3.2 2.5-3.6 1.7-.6 6.6-3.8 3.9-9-2.7-5.2-3.6-5.5-3.6-7.9s-6-5.8-10.7-2.4l-1.4.8s-2.2-2.7-5.7-1.7-2.2 3.4-2 4l1.1-1.6s.4.2.4 1.2c0 .9.8 1.7 1.6 1.4.3-.2.7-.1.9.3 0 .1.1.1.1.2 0 0 .2.9-.6 1.1 0-.1.8 3.4 1.9 2.6z"/></defs><clipPath id="SVGID_27_"><use xlink:href="#SVGID_26_" overflow="visible"/></clipPath><g clip-path="url(#SVGID_27_)"><linearGradient id="SVGID_28_" gradientUnits="userSpaceOnUse" x1="4614.403" y1="-1081.757" x2="4623.343" y2="-1076.597" gradientTransform="matrix(.191 0 0 -.191 -654.481 -100.208)"><stop offset=".25" stop-color="#00052a" stop-opacity=".07"/><stop offset=".56" stop-color="#00052a" stop-opacity=".13"/><stop offset=".75" stop-color="#00052a" stop-opacity=".32"/><stop offset=".9" stop-color="#00052a" stop-opacity=".66"/><stop offset="1" stop-color="#00052a"/></linearGradient><path d="M227.6 104.6s1.1.3 1 1.3c-.1.9-1.1 1.6-1.1 1.6l.2-.2s-.6-1.5-.5-2c.1-.5.1-.7.4-.7z" fill="url(#SVGID_28_)"/><linearGradient id="SVGID_29_" gradientUnits="userSpaceOnUse" x1="4670.824" y1="-1208.327" x2="4764.335" y2="-1154.332" gradientTransform="matrix(.191 0 0 -.191 -654.481 -100.208)"><stop offset=".26" stop-color="#00052a" stop-opacity=".07"/><stop offset="1" stop-color="#00052a"/></linearGradient><path d="M251.6 113.4s1.4 6.6-5.2 8.3c-2.5.6-4.9 3.5-2.8 8 2 4.6-2.5 6.6-2.5 6.6l4.7-1.4 8.5-10.9-2.7-10.6z" fill="url(#SVGID_29_)"/><linearGradient id="SVGID_30_" gradientUnits="userSpaceOnUse" x1="4633.991" y1="-1127.323" x2="4699.087" y2="-1089.735" gradientTransform="matrix(.191 0 0 -.191 -654.481 -100.208)"><stop offset=".25" stop-color="#00052a" stop-opacity=".07"/><stop offset=".56" stop-color="#00052a" stop-opacity=".13"/><stop offset=".75" stop-color="#00052a" stop-opacity=".32"/><stop offset=".9" stop-color="#00052a" stop-opacity=".66"/><stop offset="1" stop-color="#00052a"/></linearGradient><path d="M236.9 105.3l-.5-.6s2.8-.8 4.7.6c1.9 1.4 3.5 6.7 0 10.4-3 3.1-6.9 3.1-8 3.6-1.1.5 3.8-7.4 3.8-7.4v-6.6z" fill="url(#SVGID_30_)"/></g><path class="st41" d="M235 104.6l1.1-.5c.2-.1.4 0 .4.2l.4.9c.1.2 0 .4-.2.4l-1.1.5c-.2.1-.4 0-.4-.2l-.4-.9c-.1-.2 0-.4.2-.4z"/></g></svg>